<?xml version="1.0" standalone="no"?>
<!DOCTYPE svg PUBLIC "-//W3C//DTD SVG 20010904//EN"
 "http://www.w3.org/TR/2001/REC-SVG-20010904/DTD/svg10.dtd">
<svg version="1.0" xmlns="http://www.w3.org/2000/svg"
 width="16.000000pt" height="16.000000pt" viewBox="0 0 16.000000 16.000000"
 preserveAspectRatio="xMidYMid meet">
<metadata>
Created by potrace 1.11, written by Peter Selinger 2001-2013
</metadata>
<g transform="translate(0.000000,16.000000) scale(0.003837,-0.003837)"
fill="#000000" stroke="none">
<path d="M778 4154 c-213 -39 -426 -166 -565 -339 -77 -95 -154 -247 -185
-365 l-23 -85 0 -1280 c0 -1204 1 -1284 18 -1345 53 -191 120 -312 246 -444
121 -125 275 -216 450 -264 l96 -27 1265 0 1265 0 89 23 c170 43 328 133 452
256 123 124 213 282 256 452 l23 89 0 1265 0 1265 -27 96 c-63 228 -205 429
-393 556 -99 66 -159 94 -300 136 -69 21 -81 21 -1330 23 -1045 2 -1273 0
-1337 -12z m2127 -1212 l830 -417 3 -645 2 -644 29 -31 c48 -50 65 -94 66
-165 0 -53 -5 -73 -27 -111 -46 -78 -145 -128 -226 -113 -183 33 -260 244
-137 378 l35 39 -2 559 -3 559 -702 353 -702 353 -558 -284 c-307 -156 -561
-287 -565 -291 -4 -4 248 -136 559 -294 l566 -286 493 246 494 247 140 -70
140 -69 0 -396 0 -395 -645 -325 -645 -325 -690 348 -689 347 -46 -11 c-55
-14 -121 0 -177 36 -92 61 -123 200 -65 298 34 58 101 103 165 113 101 15 217
-58 245 -154 l14 -45 633 -323 633 -322 504 251 503 252 0 257 c0 142 -3 258
-6 258 -4 0 -235 -116 -515 -257 l-508 -258 -673 340 c-370 186 -758 383 -862
436 l-188 97 648 327 c357 180 748 378 869 441 121 62 222 113 225 113 3 0
379 -188 835 -417z"/>
</g>
</svg>
